<svg width="0" height="0" class="hidden">
<symbol xmlns="http://www.w3.org/2000/svg" viewBox="0 0 47.971 47.971" id="close">
        <path d="M28.228,23.986L47.092,5.122c1.172-1.171,1.172-3.071,0-4.242c-1.172-1.172-3.07-1.172-4.242,0L23.986,19.744L5.121,0.88
		c-1.172-1.172-3.07-1.172-4.242,0c-1.172,1.171-1.172,3.071,0,4.242l18.865,18.864L0.879,42.85c-1.172,1.171-1.172,3.071,0,4.242
		C1.465,47.677,2.233,47.97,3,47.97s1.535-0.293,2.121-0.879l18.865-18.864L42.85,47.091c0.586,0.586,1.354,0.879,2.121,0.879
		s1.535-0.293,2.121-0.879c1.172-1.171,1.172-3.071,0-4.242L28.228,23.986z"/>
    </symbol>
    <symbol xmlns="http://www.w3.org/2000/svg" viewBox="0 0 297 297" id="cources">
        <path d="M287.631 15.459H157.869v-6.09a9.37 9.37 0 0 0-18.738 0v6.09H9.369c-5.174 0-9.368 4.195-9.368 9.369v30.918c0 5.174 4.194 9.369 9.368 9.369h6.09v160.68a9.37 9.37 0 0 0 9.369 9.369h104.934L94.628 282.01c-3.104 4.139-2.266 10.012 1.874 13.116a9.318 9.318 0 0 0 5.614 1.874 9.355 9.355 0 0 0 7.502-3.748l29.513-39.35v33.729a9.37 9.37 0 0 0 18.738 0v-33.729l29.513 39.35a9.354 9.354 0 0 0 7.502 3.748c1.957 0 3.929-.61 5.614-1.874 4.14-3.104 4.979-8.978 1.874-13.116l-35.134-46.846h104.934c5.174 0 9.368-4.195 9.368-9.369V65.115h6.091c5.174 0 9.368-4.195 9.368-9.369V24.828c0-5.174-4.194-9.369-9.368-9.369zM18.738 46.377v-12.18h259.523v12.18H18.738zm244.065 170.049H34.197V65.115h228.605v151.311z"></path>
        <path d="M71.205 142.411h139.131a9.37 9.37 0 0 0 0-18.738H71.205a9.37 9.37 0 0 0 0 18.738zm0-30.918h30.918a9.37 9.37 0 0 0 0-18.738H71.205a9.37 9.37 0 0 0 0 18.738zm0 61.835h92.754a9.37 9.37 0 0 0 0-18.738H71.205a9.37 9.37 0 0 0 0 18.738z"></path>
    </symbol>
    <symbol xmlns="http://www.w3.org/2000/svg" viewBox="0 0 96.124 96.123" id="fb">
        <path d="M72.089,0.02L59.624,0C45.62,0,36.57,9.285,36.57,23.656v10.907H24.037c-1.083,0-1.96,0.878-1.96,1.961v15.803
		c0,1.083,0.878,1.96,1.96,1.96h12.533v39.876c0,1.083,0.877,1.96,1.96,1.96h16.352c1.083,0,1.96-0.878,1.96-1.96V54.287h14.654
		c1.083,0,1.96-0.877,1.96-1.96l0.006-15.803c0-0.52-0.207-1.018-0.574-1.386c-0.367-0.368-0.867-0.575-1.387-0.575H56.842v-9.246
		c0-4.444,1.059-6.7,6.848-6.7l8.397-0.003c1.082,0,1.959-0.878,1.959-1.96V1.98C74.046,0.899,73.17,0.022,72.089,0.02z"/>

    </symbol>
    <symbol xmlns="http://www.w3.org/2000/svg" viewBox="0 0 451 451" id="glass">
        <path d="M447.05,428l-109.6-109.6c29.4-33.8,47.2-77.9,47.2-126.1C384.65,86.2,298.35,0,192.35,0C86.25,0,0.05,86.3,0.05,192.3
		s86.3,192.3,192.3,192.3c48.2,0,92.3-17.8,126.1-47.2L428.05,447c2.6,2.6,6.1,4,9.5,4s6.9-1.3,9.5-4
		C452.25,441.8,452.25,433.2,447.05,428z M26.95,192.3c0-91.2,74.2-165.3,165.3-165.3c91.2,0,165.3,74.2,165.3,165.3
		s-74.1,165.4-165.3,165.4C101.15,357.7,26.95,283.5,26.95,192.3z"/>
    </symbol>
    <symbol xmlns="http://www.w3.org/2000/svg" viewBox="0 0 512 512" id="inst">
        <path d="M352,0H160C71.648,0,0,71.648,0,160v192c0,88.352,71.648,160,160,160h192c88.352,0,160-71.648,160-160V160
			C512,71.648,440.352,0,352,0z M464,352c0,61.76-50.24,112-112,112H160c-61.76,0-112-50.24-112-112V160C48,98.24,98.24,48,160,48
			h192c61.76,0,112,50.24,112,112V352z"/>
        <path d="M256,128c-70.688,0-128,57.312-128,128s57.312,128,128,128s128-57.312,128-128S326.688,128,256,128z M256,336
			c-44.096,0-80-35.904-80-80c0-44.128,35.904-80,80-80s80,35.872,80,80C336,300.096,300.096,336,256,336z"/>
        <circle cx="393.6" cy="118.4" r="17.056"/>
    </symbol>
    <symbol xmlns="http://www.w3.org/2000/svg" viewBox="0 0 487.222 487.222" id="star">
        <path d="M486.554,186.811c-1.6-4.9-5.8-8.4-10.9-9.2l-152-21.6l-68.4-137.5c-2.3-4.6-7-7.5-12.1-7.5l0,0c-5.1,0-9.8,2.9-12.1,7.6
		l-67.5,137.9l-152,22.6c-5.1,0.8-9.3,4.3-10.9,9.2s-0.2,10.3,3.5,13.8l110.3,106.9l-25.5,151.4c-0.9,5.1,1.2,10.2,5.4,13.2
		c2.3,1.7,5.1,2.6,7.9,2.6c2.2,0,4.3-0.5,6.3-1.6l135.7-71.9l136.1,71.1c2,1,4.1,1.5,6.2,1.5l0,0c7.4,0,13.5-6.1,13.5-13.5
		c0-1.1-0.1-2.1-0.4-3.1l-26.3-150.5l109.6-107.5C486.854,197.111,488.154,191.711,486.554,186.811z M349.554,293.911
		c-3.2,3.1-4.6,7.6-3.8,12l22.9,131.3l-118.2-61.7c-3.9-2.1-8.6-2-12.6,0l-117.8,62.4l22.1-131.5c0.7-4.4-0.7-8.8-3.9-11.9
		l-95.6-92.8l131.9-19.6c4.4-0.7,8.2-3.4,10.1-7.4l58.6-119.7l59.4,119.4c2,4,5.8,6.7,10.2,7.4l132,18.8L349.554,293.911z"/>
    </symbol>
    <symbol xmlns="http://www.w3.org/2000/svg" viewBox="0 0 612 612" id="ava">
        <path d="M612,306.036C612,137.405,474.595,0,305.964,0S0,137.405,0,306.036c0,92.881,42.14,176.437,107.698,232.599
		c0.795,0.795,1.59,1.59,3.108,2.313C163.86,585.473,231.804,612,306.759,612c73.365,0,141.309-26.527,194.363-69.462
		c3.108-0.795,5.493-3.108,7.011-5.493C571.451,480.088,612,398.122,612,306.036z M28.117,306.036
		c0-153.018,124.901-277.919,277.919-277.919s277.919,124.901,277.919,277.919c0,74.955-29.635,142.826-78.063,192.845
		c-7.806-36.719-31.225-99.169-103.072-139.718c16.408-20.311,25.732-46.838,25.732-74.955c0-67.149-54.644-121.793-121.793-121.793
		s-121.793,54.644-121.793,121.793c0,28.117,10.119,53.849,25.732,74.955c-72.497,40.549-95.916,103-102.928,139.718
		C58.547,449.658,28.117,380.991,28.117,306.036z M212.36,284.93c0-51.536,42.14-93.676,93.676-93.676s93.676,42.14,93.676,93.676
		s-42.14,93.676-93.676,93.676S212.36,336.466,212.36,284.93z M132.707,523.023c1.59-22.624,14.022-99.169,98.374-142.104
		c21.106,16.408,46.838,25.732,74.955,25.732c28.117,0,54.644-10.119,75.75-26.527c83.556,42.935,96.784,117.89,99.169,142.104
		c-47.633,38.237-108.493,61.655-174.052,61.655C240.478,583.955,180.34,561.331,132.707,523.023z"/>
    </symbol>

    <symbol xmlns="http://www.w3.org/2000/svg" viewBox="0 0 548.358 548.358" id="vk">
        <path d="M545.451,400.298c-0.664-1.431-1.283-2.618-1.858-3.569c-9.514-17.135-27.695-38.167-54.532-63.102l-0.567-0.571
		l-0.284-0.28l-0.287-0.287h-0.288c-12.18-11.611-19.893-19.418-23.123-23.415c-5.91-7.614-7.234-15.321-4.004-23.13
		c2.282-5.9,10.854-18.36,25.696-37.397c7.807-10.089,13.99-18.175,18.556-24.267c32.931-43.78,47.208-71.756,42.828-83.939
		l-1.701-2.847c-1.143-1.714-4.093-3.282-8.846-4.712c-4.764-1.427-10.853-1.663-18.278-0.712l-82.224,0.568
		c-1.332-0.472-3.234-0.428-5.712,0.144c-2.475,0.572-3.713,0.859-3.713,0.859l-1.431,0.715l-1.136,0.859
		c-0.952,0.568-1.999,1.567-3.142,2.995c-1.137,1.423-2.088,3.093-2.848,4.996c-8.952,23.031-19.13,44.444-30.553,64.238
		c-7.043,11.803-13.511,22.032-19.418,30.693c-5.899,8.658-10.848,15.037-14.842,19.126c-4,4.093-7.61,7.372-10.852,9.849
		c-3.237,2.478-5.708,3.525-7.419,3.142c-1.715-0.383-3.33-0.763-4.859-1.143c-2.663-1.714-4.805-4.045-6.42-6.995
		c-1.622-2.95-2.714-6.663-3.285-11.136c-0.568-4.476-0.904-8.326-1-11.563c-0.089-3.233-0.048-7.806,0.145-13.706
		c0.198-5.903,0.287-9.897,0.287-11.991c0-7.234,0.141-15.085,0.424-23.555c0.288-8.47,0.521-15.181,0.716-20.125
		c0.194-4.949,0.284-10.185,0.284-15.705s-0.336-9.849-1-12.991c-0.656-3.138-1.663-6.184-2.99-9.137
		c-1.335-2.95-3.289-5.232-5.853-6.852c-2.569-1.618-5.763-2.902-9.564-3.856c-10.089-2.283-22.936-3.518-38.547-3.71
		c-35.401-0.38-58.148,1.906-68.236,6.855c-3.997,2.091-7.614,4.948-10.848,8.562c-3.427,4.189-3.905,6.475-1.431,6.851
		c11.422,1.711,19.508,5.804,24.267,12.275l1.715,3.429c1.334,2.474,2.666,6.854,3.999,13.134c1.331,6.28,2.19,13.227,2.568,20.837
		c0.95,13.897,0.95,25.793,0,35.689c-0.953,9.9-1.853,17.607-2.712,23.127c-0.859,5.52-2.143,9.993-3.855,13.418
		c-1.715,3.426-2.856,5.52-3.428,6.28c-0.571,0.76-1.047,1.239-1.425,1.427c-2.474,0.948-5.047,1.431-7.71,1.431
		c-2.667,0-5.901-1.334-9.707-4c-3.805-2.666-7.754-6.328-11.847-10.992c-4.093-4.665-8.709-11.184-13.85-19.558
		c-5.137-8.374-10.467-18.271-15.987-29.691l-4.567-8.282c-2.855-5.328-6.755-13.086-11.704-23.267
		c-4.952-10.185-9.329-20.037-13.134-29.554c-1.521-3.997-3.806-7.04-6.851-9.134l-1.429-0.859c-0.95-0.76-2.475-1.567-4.567-2.427
		c-2.095-0.859-4.281-1.475-6.567-1.854l-78.229,0.568c-7.994,0-13.418,1.811-16.274,5.428l-1.143,1.711
		C0.288,140.146,0,141.668,0,143.763c0,2.094,0.571,4.664,1.714,7.707c11.42,26.84,23.839,52.725,37.257,77.659
		c13.418,24.934,25.078,45.019,34.973,60.237c9.897,15.229,19.985,29.602,30.264,43.112c10.279,13.515,17.083,22.176,20.412,25.981
		c3.333,3.812,5.951,6.662,7.854,8.565l7.139,6.851c4.568,4.569,11.276,10.041,20.127,16.416
		c8.853,6.379,18.654,12.659,29.408,18.85c10.756,6.181,23.269,11.225,37.546,15.126c14.275,3.905,28.169,5.472,41.684,4.716h32.834
		c6.659-0.575,11.704-2.669,15.133-6.283l1.136-1.431c0.764-1.136,1.479-2.901,2.139-5.276c0.668-2.379,1-5,1-7.851
		c-0.195-8.183,0.428-15.558,1.852-22.124c1.423-6.564,3.045-11.513,4.859-14.846c1.813-3.33,3.859-6.14,6.136-8.418
		c2.282-2.283,3.908-3.666,4.862-4.142c0.948-0.479,1.705-0.804,2.276-0.999c4.568-1.522,9.944-0.048,16.136,4.429
		c6.187,4.473,11.99,9.996,17.418,16.56c5.425,6.57,11.943,13.941,19.555,22.124c7.617,8.186,14.277,14.271,19.985,18.274
		l5.708,3.426c3.812,2.286,8.761,4.38,14.853,6.283c6.081,1.902,11.409,2.378,15.984,1.427l73.087-1.14
		c7.229,0,12.854-1.197,16.844-3.572c3.998-2.379,6.373-5,7.139-7.851c0.764-2.854,0.805-6.092,0.145-9.712
		C546.782,404.25,546.115,401.725,545.451,400.298z"/>
    </symbol>

    <symbol xmlns="http://www.w3.org/2000/svg" viewBox="0 0 480 480" id="company">
        <path d="M72.004,120c-0.001,0-0.003,0-0.004,0H40c-4.417-0.001-7.999,3.579-8,7.996c0,0.001,0,0.003,0,0.004v32
			c-0.001,4.417,3.579,7.999,7.996,8c0.001,0,0.003,0,0.004,0h32c4.417,0.001,7.999-3.579,8-7.996c0-0.001,0-0.003,0-0.004v-32
			C80.001,123.583,76.421,120.001,72.004,120z M64,152H48v-16h16V152z"/>
        <path d="M168.004,120c-0.001,0-0.003,0-0.004,0h-32c-4.417-0.001-7.999,3.579-8,7.996c0,0.001,0,0.003,0,0.004v32
			c-0.001,4.417,3.579,7.999,7.996,8c0.001,0,0.003,0,0.004,0h32c4.417,0.001,7.999-3.579,8-7.996c0-0.001,0-0.003,0-0.004v-32
			C176.001,123.583,172.421,120.001,168.004,120z M160,152h-16v-16h16V152z"/>
        <path d="M264.004,120c-0.001,0-0.003,0-0.004,0h-32c-4.417-0.001-7.999,3.579-8,7.996c0,0.001,0,0.003,0,0.004v32
			c-0.001,4.417,3.579,7.999,7.996,8c0.001,0,0.003,0,0.004,0h32c4.417,0.001,7.999-3.579,8-7.996c0-0.001,0-0.003,0-0.004v-32
			C272.001,123.583,268.421,120.001,264.004,120z M256,152h-16v-16h16V152z"/>
        <path d="M72.004,208c-0.001,0-0.003,0-0.004,0H40c-4.417-0.001-7.999,3.579-8,7.996c0,0.001,0,0.003,0,0.004v32
			c-0.001,4.417,3.579,7.999,7.996,8c0.001,0,0.003,0,0.004,0h32c4.417,0.001,7.999-3.579,8-7.996c0-0.001,0-0.003,0-0.004v-32
			C80.001,211.583,76.421,208.001,72.004,208z M64,240H48v-16h16V240z"/>
        <path d="M168.004,208c-0.001,0-0.003,0-0.004,0h-32c-4.417-0.001-7.999,3.579-8,7.996c0,0.001,0,0.003,0,0.004v32
			c-0.001,4.417,3.579,7.999,7.996,8c0.001,0,0.003,0,0.004,0h32c4.417,0.001,7.999-3.579,8-7.996c0-0.001,0-0.003,0-0.004v-32
			C176.001,211.583,172.421,208.001,168.004,208z M160,240h-16v-16h16V240z"/>
        <path d="M264.004,208c-0.001,0-0.003,0-0.004,0h-32c-4.417-0.001-7.999,3.579-8,7.996c0,0.001,0,0.003,0,0.004v32
			c-0.001,4.417,3.579,7.999,7.996,8c0.001,0,0.003,0,0.004,0h32c4.417,0.001,7.999-3.579,8-7.996c0-0.001,0-0.003,0-0.004v-32
			C272.001,211.583,268.421,208.001,264.004,208z M256,240h-16v-16h16V240z"/>
        <path d="M72.004,296c-0.001,0-0.003,0-0.004,0H40c-4.417-0.001-7.999,3.579-8,7.996c0,0.001,0,0.003,0,0.004v32
			c-0.001,4.417,3.579,7.999,7.996,8c0.001,0,0.003,0,0.004,0h32c4.417,0.001,7.999-3.579,8-7.996c0-0.001,0-0.003,0-0.004v-32
			C80.001,299.583,76.421,296.001,72.004,296z M64,328H48v-16h16V328z"/>
        <path d="M168.004,296c-0.001,0-0.003,0-0.004,0h-32c-4.417-0.001-7.999,3.579-8,7.996c0,0.001,0,0.003,0,0.004v32
			c-0.001,4.417,3.579,7.999,7.996,8c0.001,0,0.003,0,0.004,0h32c4.417,0.001,7.999-3.579,8-7.996c0-0.001,0-0.003,0-0.004v-32
			C176.001,299.583,172.421,296.001,168.004,296z M160,328h-16v-16h16V328z"/>
        <path d="M264.004,296c-0.001,0-0.003,0-0.004,0h-32c-4.417-0.001-7.999,3.579-8,7.996c0,0.001,0,0.003,0,0.004v32
			c-0.001,4.417,3.579,7.999,7.996,8c0.001,0,0.003,0,0.004,0h32c4.417,0.001,7.999-3.579,8-7.996c0-0.001,0-0.003,0-0.004v-32
			C272.001,299.583,268.421,296.001,264.004,296z M256,328h-16v-16h16V328z"/>
        <path d="M72.004,384c-0.001,0-0.003,0-0.004,0H40c-4.417-0.001-7.999,3.579-8,7.996c0,0.001,0,0.003,0,0.004v32
			c-0.001,4.417,3.579,7.999,7.996,8c0.001,0,0.003,0,0.004,0h32c4.417,0.001,7.999-3.579,8-7.996c0-0.001,0-0.003,0-0.004v-32
			C80.001,387.583,76.421,384.001,72.004,384z M64,416H48v-16h16V416z"/>
        <path d="M264.004,384c-0.001,0-0.003,0-0.004,0h-32c-4.417-0.001-7.999,3.579-8,7.996c0,0.001,0,0.003,0,0.004v32
			c-0.001,4.417,3.579,7.999,7.996,8c0.001,0,0.003,0,0.004,0h32c4.417,0.001,7.999-3.579,8-7.996c0-0.001,0-0.003,0-0.004v-32
			C272.001,387.583,268.421,384.001,264.004,384z M256,416h-16v-16h16V416z"/>
        <path d="M472.004,200c-0.001,0-0.003,0-0.004,0h-80v-40.047c7.235,4.076,15.31,6.436,23.602,6.898
			c0.84,0.047,1.68,0.062,2.512,0.062c13.377-0.028,26.183-5.427,35.542-14.984c3.124-3.122,3.125-8.186,0.003-11.309
			c-0.001-0.001-0.002-0.002-0.003-0.003l-27.48-27.48l19.48-19.481l-11.312-11.312l-19.481,19.48l-27.48-27.48
			c-3.174-3-8.138-3-11.312,0c-19.92,20.148-19.952,52.564-0.07,72.75V200h-72V96c0.001-4.417-3.579-7.999-7.996-8
			c-0.001,0-0.003,0-0.004,0h-8V64c0.001-4.417-3.579-7.999-7.996-8c-0.001,0-0.003,0-0.004,0h-24V8
			c0.001-4.417-3.579-7.999-7.996-8c-0.001,0-0.003,0-0.004,0H56c-4.417-0.001-7.999,3.579-8,7.996C48,7.997,48,7.999,48,8v48H24
			c-4.417-0.001-7.999,3.579-8,7.996c0,0.001,0,0.003,0,0.004v24H8c-4.417-0.001-7.999,3.579-8,7.996C0,95.997,0,95.999,0,96v376
			c-0.001,4.417,3.579,7.999,7.996,8c0.001,0,0.003,0,0.004,0h464c4.417,0.001,7.999-3.579,8-7.996c0-0.001,0-0.003,0-0.004V208
			C480.001,203.583,476.421,200.001,472.004,200z M64,16h176v40H64V16z M32,72h240v16H32V72z M144,464h-32v-57.539
			c0.007-7.982,6.475-14.452,14.457-14.461H144V464z M192,464h-32v-72h17.543c7.982,0.009,14.45,6.479,14.457,14.461V464z M288,464
			h-80v-57.539c-0.018-16.814-13.643-30.441-30.457-30.461h-51.086c-16.814,0.02-30.439,13.647-30.457,30.461V464H16V104h272V464z
			 M382.336,91.922l53.754,53.758c-5.847,3.777-12.743,5.596-19.691,5.195c-10.16-0.716-19.691-5.182-26.742-12.531
			C376.352,126.653,373.275,107.139,382.336,91.922z M408,464h-48v-43.305c0.009-7.009,5.69-12.689,12.699-12.695h22.602
			c7.009,0.006,12.691,5.686,12.699,12.695V464z M464,464h-40v-43.305c-0.02-15.841-12.858-28.677-28.699-28.695h-22.602
			c-15.841,0.018-28.679,12.854-28.699,28.695V464h-40V216h160V464z"/>
        <path d="M408.004,232c-0.001,0-0.003,0-0.004,0h-48c-4.417-0.001-7.999,3.579-8,7.996c0,0.001,0,0.003,0,0.004v48
			c-0.001,4.417,3.579,7.999,7.996,8c0.001,0,0.003,0,0.004,0h48c4.417,0.001,7.999-3.579,8-7.996c0-0.001,0-0.003,0-0.004v-48
			C416.001,235.583,412.421,232.001,408.004,232z M400,280h-32v-32h32V280z"/>
        <path d="M408.004,312c-0.001,0-0.003,0-0.004,0h-48c-4.417-0.001-7.999,3.579-8,7.996c0,0.001,0,0.003,0,0.004v48
			c-0.001,4.417,3.579,7.999,7.996,8c0.001,0,0.003,0,0.004,0h48c4.417,0.001,7.999-3.579,8-7.996c0-0.001,0-0.003,0-0.004v-48
			C416.001,315.583,412.421,312.001,408.004,312z M400,360h-32v-32h32V360z"/>
    </symbol>
</svg>